<?xml version="1.0" standalone="no"?>
<!DOCTYPE svg PUBLIC "-//W3C//DTD SVG 20010904//EN"
 "http://www.w3.org/TR/2001/REC-SVG-20010904/DTD/svg10.dtd">
<svg version="1.0" xmlns="http://www.w3.org/2000/svg"
 width="51.000000pt" height="51.000000pt" viewBox="0 0 51.000000 51.000000"
 preserveAspectRatio="xMidYMid meet">

<g transform="translate(0.000000,51.000000) scale(0.100000,-0.100000)"
fill="#000000" stroke="none">
<path d="M187 496 c-88 -24 -157 -98 -177 -188 -29 -136 58 -270 194 -298 136
-28 268 58 296 194 38 184 -131 342 -313 292z m23 -151 l44 -45 47 46 c32 31
53 45 63 41 35 -13 29 -38 -18 -86 l-46 -46 47 -47 c47 -47 52 -71 17 -85 -11
-4 -31 9 -62 40 l-47 47 -46 -46 c-48 -47 -73 -53 -86 -18 -4 10 10 31 41 63
l46 47 -45 44 c-47 47 -52 59 -33 78 19 19 31 14 78 -33z"/>
</g>
</svg>
